<svg width="96" height="96" viewBox="0 0 96 96" fill="none" xmlns="http://www.w3.org/2000/svg">
<path d="M30.836 22.5737L19.1997 83.4103L29.3276 81.334L31.267 71.1599L41.0717 69.1874L42.4724 78.6347L52.6003 76.5584L46.2434 33.9935L40.964 20.4973L30.836 22.5737Z" fill="#4F748E"/>
<path d="M40.964 20.4965L29.3276 81.3332L39.4556 79.2568L41.395 69.0828L51.1996 67.1103L52.6003 76.5576L62.7282 74.4813L56.3714 31.9164L51.0919 18.4202L40.964 20.4965Z" fill="#3A5B6E"/>
<path d="M51.0919 18.4213L39.4556 79.3618L49.5835 77.2855L51.5229 67.1114L61.3276 65.1389L62.7282 74.5862L72.8562 72.5099L66.4993 29.945L61.2198 16.345L51.0919 18.4213Z" fill="#203240"/>
<path d="M61.2198 16.3442L49.5835 77.2847L60.0347 75.1045L61.4353 65.0343L71.3478 62.958L72.7484 72.4053L83.1996 70.2251L71.671 14.1641L61.2198 16.3442ZM62.9437 54.9641L66.4993 29.8404L70.0548 53.5106L62.9437 54.9641Z" fill="white"/>
</svg>
